<svg xmlns="http://www.w3.org/2000/svg" xmlns:xlink="http://www.w3.org/1999/xlink" width="100%" zoomAndPan="magnify" viewBox="60 120 260 120" height="auto" preserveAspectRatio="xMidYMid meet" version="1.0"><defs><g/><clipPath id="778980f895"><path d="M 67 1 L 72.601562 1 L 72.601562 8 L 67 8 Z M 67 1 " clip-rule="nonzero"/></clipPath><clipPath id="008f10ebea"><rect x="0" width="73" y="0" height="10"/></clipPath></defs><g fill="#FFFFFF" fill-opacity="1"><g transform="translate(91.436116, 221.225201)"><g><path d="M 40.203125 12.78125 C 39.734375 12.820312 39.285156 12.851562 38.859375 12.875 C 38.429688 12.894531 37.984375 12.90625 37.515625 12.90625 C 34.273438 12.90625 31.460938 12.140625 29.078125 10.609375 C 26.691406 9.078125 24.570312 7.082031 22.71875 4.625 C 20.863281 2.175781 19.210938 -0.585938 17.765625 -3.671875 C 16.316406 -6.765625 14.929688 -9.875 13.609375 -13 C 12.285156 -16.132812 10.953125 -19.128906 9.609375 -21.984375 C 8.273438 -24.835938 6.796875 -27.265625 5.171875 -29.265625 L 5.171875 -4.734375 C 5.171875 -3.492188 5.507812 -2.476562 6.1875 -1.6875 C 6.875 -0.90625 7.773438 -0.34375 8.890625 0 L 1.15625 0 C 3.5 -0.726562 4.671875 -2.304688 4.671875 -4.734375 L 4.671875 -29.84375 C 3.171875 -31.632812 1.378906 -33.15625 -0.703125 -34.40625 C -2.785156 -35.664062 -5.019531 -36.296875 -7.40625 -36.296875 C -8.34375 -36.296875 -9.257812 -36.21875 -10.15625 -36.0625 C -11.050781 -35.914062 -11.925781 -35.738281 -12.78125 -35.53125 L -12.96875 -35.984375 C -10.925781 -36.578125 -8.863281 -36.875 -6.78125 -36.875 C -4.09375 -36.875 -1.664062 -36.40625 0.5 -35.46875 C 2.675781 -34.53125 4.648438 -33.269531 6.421875 -31.6875 C 8.191406 -30.113281 9.769531 -28.296875 11.15625 -26.234375 C 12.539062 -24.171875 13.796875 -22.007812 14.921875 -19.75 C 16.046875 -17.488281 17.085938 -15.207031 18.046875 -12.90625 C 19.003906 -10.601562 19.910156 -8.429688 20.765625 -6.390625 L 32.078125 -31.3125 L 37.828125 -31.3125 C 36.929688 -31.0625 36.320312 -30.5625 36 -29.8125 C 35.6875 -29.0625 35.53125 -28.265625 35.53125 -27.421875 L 35.53125 -4.09375 C 35.53125 -3.238281 35.675781 -2.414062 35.96875 -1.625 C 36.269531 -0.84375 36.890625 -0.300781 37.828125 0 L 29.328125 0 C 30.265625 -0.257812 30.882812 -0.789062 31.1875 -1.59375 C 31.488281 -2.40625 31.640625 -3.238281 31.640625 -4.09375 L 31.640625 -29.265625 L 21.03125 -5.8125 C 21.707031 -4.0625 22.515625 -2.132812 23.453125 -0.03125 C 24.390625 2.070312 25.492188 4.039062 26.765625 5.875 C 28.046875 7.707031 29.550781 9.238281 31.28125 10.46875 C 33.007812 11.707031 34.976562 12.328125 37.1875 12.328125 C 37.695312 12.328125 38.195312 12.316406 38.6875 12.296875 C 39.1875 12.273438 39.671875 12.222656 40.140625 12.140625 Z M 40.203125 12.78125 "/></g></g></g><g fill="#FFFFFF" fill-opacity="1"><g transform="translate(124.025202, 221.225201)"><g><path d="M 14.5 -0.515625 C 16.507812 -0.515625 18.472656 -0.984375 20.390625 -1.921875 C 22.304688 -2.859375 23.753906 -4.242188 24.734375 -6.078125 L 23.265625 0 L 2.234375 0 C 3.171875 -0.300781 3.785156 -0.84375 4.078125 -1.625 C 4.378906 -2.414062 4.53125 -3.238281 4.53125 -4.09375 L 4.53125 -27.421875 C 4.53125 -28.265625 4.378906 -29.0625 4.078125 -29.8125 C 3.785156 -30.5625 3.171875 -31.0625 2.234375 -31.3125 L 22.8125 -31.3125 L 24.09375 -25.3125 C 23.113281 -27.1875 21.800781 -28.566406 20.15625 -29.453125 C 18.519531 -30.347656 16.660156 -30.796875 14.578125 -30.796875 L 8.4375 -30.796875 L 8.4375 -16.171875 L 12.390625 -16.171875 C 13.546875 -16.171875 14.613281 -16.414062 15.59375 -16.90625 C 16.570312 -17.394531 17.234375 -18.253906 17.578125 -19.484375 L 17.578125 -12.46875 C 17.234375 -13.695312 16.570312 -14.535156 15.59375 -14.984375 C 14.613281 -15.429688 13.546875 -15.65625 12.390625 -15.65625 L 8.4375 -15.65625 L 8.4375 -0.515625 Z M 14.5 -0.515625 "/></g></g></g><g fill="#FFFFFF" fill-opacity="1"><g transform="translate(145.17576, 221.225201)"><g><path d="M 6.328125 -4.734375 C 6.328125 -3.492188 6.664062 -2.476562 7.34375 -1.6875 C 8.03125 -0.90625 8.925781 -0.34375 10.03125 0 L 2.296875 0 C 3.410156 -0.34375 4.285156 -0.90625 4.921875 -1.6875 C 5.554688 -2.476562 5.875 -3.492188 5.875 -4.734375 L 5.875 -27.09375 C 5.875 -28.113281 5.507812 -28.984375 4.78125 -29.703125 C 4.0625 -30.429688 3.234375 -30.96875 2.296875 -31.3125 L 9.328125 -31.3125 L 22.234375 -5.375 L 33.359375 -31.3125 L 38.984375 -31.3125 C 38.085938 -31.007812 37.476562 -30.492188 37.15625 -29.765625 C 36.84375 -29.046875 36.6875 -28.265625 36.6875 -27.421875 L 36.6875 -4.03125 C 36.6875 -3.175781 36.84375 -2.363281 37.15625 -1.59375 C 37.476562 -0.832031 38.085938 -0.300781 38.984375 0 L 30.546875 0 C 31.484375 -0.300781 32.109375 -0.832031 32.421875 -1.59375 C 32.742188 -2.363281 32.90625 -3.175781 32.90625 -4.03125 L 32.90625 -28.828125 L 20.515625 -0.0625 L 6.328125 -28.6875 Z M 6.328125 -4.734375 "/></g></g></g><g fill="#FFFFFF" fill-opacity="1"><g transform="translate(180.576545, 221.225201)"><g><path d="M 33.875 -15.65625 C 33.875 -13.476562 33.457031 -11.429688 32.625 -9.515625 C 31.789062 -7.597656 30.660156 -5.925781 29.234375 -4.5 C 27.804688 -3.070312 26.132812 -1.941406 24.21875 -1.109375 C 22.300781 -0.285156 20.253906 0.125 18.078125 0.125 C 15.910156 0.125 13.867188 -0.285156 11.953125 -1.109375 C 10.035156 -1.941406 8.363281 -3.070312 6.9375 -4.5 C 5.507812 -5.925781 4.378906 -7.597656 3.546875 -9.515625 C 2.710938 -11.429688 2.296875 -13.476562 2.296875 -15.65625 C 2.296875 -17.832031 2.710938 -19.878906 3.546875 -21.796875 C 4.378906 -23.710938 5.507812 -25.382812 6.9375 -26.8125 C 8.363281 -28.238281 10.035156 -29.363281 11.953125 -30.1875 C 13.867188 -31.019531 15.910156 -31.4375 18.078125 -31.4375 C 20.253906 -31.4375 22.300781 -31.019531 24.21875 -30.1875 C 26.132812 -29.363281 27.804688 -28.238281 29.234375 -26.8125 C 30.660156 -25.382812 31.789062 -23.710938 32.625 -21.796875 C 33.457031 -19.878906 33.875 -17.832031 33.875 -15.65625 Z M 6.703125 -16.421875 C 6.703125 -14.765625 6.976562 -12.988281 7.53125 -11.09375 C 8.09375 -9.195312 8.894531 -7.445312 9.9375 -5.84375 C 10.976562 -4.25 12.253906 -2.925781 13.765625 -1.875 C 15.285156 -0.832031 17.003906 -0.3125 18.921875 -0.3125 C 20.703125 -0.3125 22.273438 -0.78125 23.640625 -1.71875 C 25.003906 -2.65625 26.132812 -3.847656 27.03125 -5.296875 C 27.925781 -6.753906 28.597656 -8.332031 29.046875 -10.03125 C 29.492188 -11.738281 29.71875 -13.359375 29.71875 -14.890625 C 29.71875 -16.640625 29.453125 -18.453125 28.921875 -20.328125 C 28.390625 -22.203125 27.585938 -23.925781 26.515625 -25.5 C 25.453125 -27.070312 24.164062 -28.367188 22.65625 -29.390625 C 21.144531 -30.421875 19.382812 -30.9375 17.375 -30.9375 C 15.59375 -30.9375 14.039062 -30.46875 12.71875 -29.53125 C 11.394531 -28.59375 10.285156 -27.394531 9.390625 -25.9375 C 8.492188 -24.488281 7.820312 -22.921875 7.375 -21.234375 C 6.925781 -19.554688 6.703125 -17.953125 6.703125 -16.421875 Z M 6.703125 -16.421875 "/></g></g></g><g fill="#FFFFFF" fill-opacity="1"><g transform="translate(210.86514, 221.225201)"><g><path d="M 8.4375 -3.96875 C 8.4375 -3.113281 8.601562 -2.3125 8.9375 -1.5625 C 9.28125 -0.820312 9.878906 -0.300781 10.734375 0 L 2.296875 0 C 3.191406 -0.300781 3.785156 -0.84375 4.078125 -1.625 C 4.378906 -2.414062 4.53125 -3.238281 4.53125 -4.09375 L 4.53125 -27.421875 C 4.53125 -28.265625 4.378906 -29.0625 4.078125 -29.8125 C 3.785156 -30.5625 3.191406 -31.0625 2.296875 -31.3125 L 13.171875 -31.3125 C 14.703125 -31.3125 16.203125 -31.140625 17.671875 -30.796875 C 19.140625 -30.460938 20.445312 -29.921875 21.59375 -29.171875 C 22.75 -28.429688 23.675781 -27.453125 24.375 -26.234375 C 25.082031 -25.015625 25.4375 -23.535156 25.4375 -21.796875 C 25.4375 -19.273438 24.675781 -17.226562 23.15625 -15.65625 C 21.644531 -14.082031 19.71875 -13.019531 17.375 -12.46875 L 23.203125 -3.0625 C 23.671875 -2.382812 24.222656 -1.769531 24.859375 -1.21875 C 25.492188 -0.664062 26.175781 -0.257812 26.90625 0 L 20.96875 0 L 13.359375 -12.328125 L 8.4375 -12.328125 Z M 8.4375 -12.78125 L 12.78125 -12.78125 C 15.46875 -12.78125 17.585938 -13.609375 19.140625 -15.265625 C 20.691406 -16.929688 21.46875 -19.109375 21.46875 -21.796875 C 21.46875 -24.609375 20.722656 -26.8125 19.234375 -28.40625 C 17.742188 -30 15.59375 -30.796875 12.78125 -30.796875 L 8.4375 -30.796875 Z M 8.4375 -12.78125 "/></g></g></g><g fill="#FFFFFF" fill-opacity="1"><g transform="translate(234.252284, 221.225201)"><g><path d="M 8.4375 -4.09375 C 8.4375 -3.238281 8.582031 -2.414062 8.875 -1.625 C 9.175781 -0.84375 9.773438 -0.300781 10.671875 0 L 2.234375 0 C 3.171875 -0.300781 3.785156 -0.832031 4.078125 -1.59375 C 4.378906 -2.363281 4.53125 -3.195312 4.53125 -4.09375 L 4.53125 -27.421875 C 4.53125 -28.265625 4.378906 -29.046875 4.078125 -29.765625 C 3.785156 -30.492188 3.171875 -31.007812 2.234375 -31.3125 L 10.671875 -31.3125 C 9.773438 -31.007812 9.175781 -30.492188 8.875 -29.765625 C 8.582031 -29.046875 8.4375 -28.265625 8.4375 -27.421875 Z M 8.4375 -4.09375 "/></g></g></g><g fill="#FFFFFF" fill-opacity="1"><g transform="translate(241.344325, 221.225201)"><g><path d="M 14.5 -0.515625 C 16.507812 -0.515625 18.472656 -0.984375 20.390625 -1.921875 C 22.304688 -2.859375 23.753906 -4.242188 24.734375 -6.078125 L 23.265625 0 L 2.234375 0 C 3.171875 -0.300781 3.785156 -0.84375 4.078125 -1.625 C 4.378906 -2.414062 4.53125 -3.238281 4.53125 -4.09375 L 4.53125 -27.421875 C 4.53125 -28.265625 4.378906 -29.0625 4.078125 -29.8125 C 3.785156 -30.5625 3.171875 -31.0625 2.234375 -31.3125 L 22.8125 -31.3125 L 24.09375 -25.3125 C 23.113281 -27.1875 21.800781 -28.566406 20.15625 -29.453125 C 18.519531 -30.347656 16.660156 -30.796875 14.578125 -30.796875 L 8.4375 -30.796875 L 8.4375 -16.171875 L 12.390625 -16.171875 C 13.546875 -16.171875 14.613281 -16.414062 15.59375 -16.90625 C 16.570312 -17.394531 17.234375 -18.253906 17.578125 -19.484375 L 17.578125 -12.46875 C 17.234375 -13.695312 16.570312 -14.535156 15.59375 -14.984375 C 14.613281 -15.429688 13.546875 -15.65625 12.390625 -15.65625 L 8.4375 -15.65625 L 8.4375 -0.515625 Z M 14.5 -0.515625 "/></g></g></g><g fill="#FFFFFF" fill-opacity="1"><g transform="translate(262.494882, 221.225201)"><g><path d="M 23.640625 -7.796875 C 23.640625 -6.347656 23.332031 -5.101562 22.71875 -4.0625 C 22.101562 -3.019531 21.304688 -2.164062 20.328125 -1.5 C 19.347656 -0.84375 18.238281 -0.363281 17 -0.0625 C 15.757812 0.238281 14.503906 0.390625 13.234375 0.390625 C 12.421875 0.390625 11.628906 0.28125 10.859375 0.0625 C 10.097656 -0.144531 9.363281 -0.363281 8.65625 -0.59375 C 7.957031 -0.832031 7.265625 -1.054688 6.578125 -1.265625 C 5.898438 -1.484375 5.21875 -1.59375 4.53125 -1.59375 C 4.0625 -1.59375 3.613281 -1.460938 3.1875 -1.203125 C 2.769531 -0.953125 2.429688 -0.632812 2.171875 -0.25 L 2.171875 -9.90625 C 2.554688 -8.800781 3.097656 -7.671875 3.796875 -6.515625 C 4.503906 -5.367188 5.335938 -4.335938 6.296875 -3.421875 C 7.253906 -2.503906 8.316406 -1.742188 9.484375 -1.140625 C 10.660156 -0.546875 11.890625 -0.25 13.171875 -0.25 C 14.054688 -0.25 14.96875 -0.34375 15.90625 -0.53125 C 16.84375 -0.726562 17.6875 -1.050781 18.4375 -1.5 C 19.1875 -1.945312 19.804688 -2.539062 20.296875 -3.28125 C 20.785156 -4.03125 21.03125 -4.9375 21.03125 -6 C 21.03125 -7.320312 20.582031 -8.421875 19.6875 -9.296875 C 18.789062 -10.171875 17.671875 -10.96875 16.328125 -11.6875 C 14.984375 -12.414062 13.519531 -13.109375 11.9375 -13.765625 C 10.363281 -14.429688 8.90625 -15.195312 7.5625 -16.0625 C 6.226562 -16.9375 5.113281 -17.984375 4.21875 -19.203125 C 3.320312 -20.421875 2.875 -21.921875 2.875 -23.703125 C 2.875 -25.066406 3.140625 -26.257812 3.671875 -27.28125 C 4.203125 -28.3125 4.90625 -29.175781 5.78125 -29.875 C 6.65625 -30.582031 7.664062 -31.101562 8.8125 -31.4375 C 9.96875 -31.78125 11.1875 -31.953125 12.46875 -31.953125 C 13.3125 -31.953125 14.117188 -31.832031 14.890625 -31.59375 C 15.660156 -31.363281 16.375 -31.109375 17.03125 -30.828125 C 17.6875 -30.554688 18.289062 -30.300781 18.84375 -30.0625 C 19.40625 -29.832031 19.878906 -29.71875 20.265625 -29.71875 C 20.859375 -29.71875 21.320312 -29.894531 21.65625 -30.25 C 22 -30.613281 22.257812 -31.03125 22.4375 -31.5 C 22.382812 -30.1875 22.296875 -28.878906 22.171875 -27.578125 C 22.046875 -26.273438 21.984375 -24.960938 21.984375 -23.640625 C 21.679688 -24.660156 21.210938 -25.640625 20.578125 -26.578125 C 19.941406 -27.515625 19.195312 -28.34375 18.34375 -29.0625 C 17.488281 -29.789062 16.550781 -30.378906 15.53125 -30.828125 C 14.507812 -31.273438 13.441406 -31.5 12.328125 -31.5 C 11.484375 -31.5 10.644531 -31.378906 9.8125 -31.140625 C 8.976562 -30.910156 8.238281 -30.570312 7.59375 -30.125 C 6.957031 -29.675781 6.4375 -29.101562 6.03125 -28.40625 C 5.632812 -27.707031 5.4375 -26.890625 5.4375 -25.953125 C 5.4375 -24.585938 5.878906 -23.445312 6.765625 -22.53125 C 7.660156 -21.613281 8.789062 -20.769531 10.15625 -20 C 11.519531 -19.238281 12.976562 -18.515625 14.53125 -17.828125 C 16.09375 -17.148438 17.554688 -16.363281 18.921875 -15.46875 C 20.285156 -14.570312 21.410156 -13.515625 22.296875 -12.296875 C 23.191406 -11.085938 23.640625 -9.585938 23.640625 -7.796875 Z M 23.640625 -7.796875 "/></g></g></g><g fill="#FFFFFF" fill-opacity="1"><g transform="translate(101.452798, 176.1737)"><g><path d="M 46.59375 5.75 C 44.96875 6.851562 43.34375 7.660156 41.71875 8.171875 C 40.101562 8.691406 38.296875 8.953125 36.296875 8.953125 C 33.992188 8.953125 32.066406 8.425781 30.515625 7.375 C 28.960938 6.332031 27.609375 5.023438 26.453125 3.453125 C 25.304688 1.878906 24.285156 0.164062 23.390625 -1.6875 C 22.492188 -3.539062 21.535156 -5.253906 20.515625 -6.828125 C 19.492188 -8.410156 18.320312 -9.722656 17 -10.765625 C 15.675781 -11.804688 14.054688 -12.328125 12.140625 -12.328125 L 8.4375 -12.328125 L 8.4375 -3.96875 C 8.4375 -3.113281 8.601562 -2.300781 8.9375 -1.53125 C 9.28125 -0.769531 9.898438 -0.257812 10.796875 0 L 2.234375 0 C 3.171875 -0.207031 3.785156 -0.726562 4.078125 -1.5625 C 4.378906 -2.394531 4.53125 -3.238281 4.53125 -4.09375 L 4.53125 -27.484375 C 4.53125 -28.328125 4.367188 -29.125 4.046875 -29.875 C 3.734375 -30.625 3.128906 -31.101562 2.234375 -31.3125 L 13.09375 -31.3125 C 14.632812 -31.3125 16.140625 -31.140625 17.609375 -30.796875 C 19.078125 -30.460938 20.382812 -29.921875 21.53125 -29.171875 C 22.6875 -28.429688 23.613281 -27.453125 24.3125 -26.234375 C 25.019531 -25.015625 25.375 -23.535156 25.375 -21.796875 C 25.375 -20.347656 25.0625 -19.046875 24.4375 -17.890625 C 23.820312 -16.742188 23.023438 -15.773438 22.046875 -14.984375 C 21.066406 -14.191406 19.9375 -13.570312 18.65625 -13.125 C 17.382812 -12.6875 16.066406 -12.441406 14.703125 -12.390625 C 16.234375 -12.054688 17.613281 -11.332031 18.84375 -10.21875 C 20.082031 -9.113281 21.285156 -7.828125 22.453125 -6.359375 C 23.628906 -4.890625 24.78125 -3.351562 25.90625 -1.75 C 27.039062 -0.15625 28.253906 1.3125 29.546875 2.65625 C 30.847656 4 32.273438 5.101562 33.828125 5.96875 C 35.390625 6.84375 37.128906 7.28125 39.046875 7.28125 C 40.453125 7.28125 41.71875 7.117188 42.84375 6.796875 C 43.976562 6.484375 45.140625 5.960938 46.328125 5.234375 Z M 8.4375 -12.78125 L 12.71875 -12.78125 C 15.445312 -12.78125 17.578125 -13.609375 19.109375 -15.265625 C 20.640625 -16.929688 21.40625 -19.109375 21.40625 -21.796875 C 21.40625 -24.609375 20.671875 -26.800781 19.203125 -28.375 C 17.734375 -29.945312 15.570312 -30.734375 12.71875 -30.734375 L 8.4375 -30.734375 Z M 8.4375 -12.78125 "/></g></g></g><g fill="#FFFFFF" fill-opacity="1"><g transform="translate(123.05067, 176.1737)"><g><path d="M 8.4375 -4.09375 C 8.4375 -3.238281 8.582031 -2.414062 8.875 -1.625 C 9.175781 -0.84375 9.773438 -0.300781 10.671875 0 L 2.234375 0 C 3.171875 -0.300781 3.785156 -0.832031 4.078125 -1.59375 C 4.378906 -2.363281 4.53125 -3.195312 4.53125 -4.09375 L 4.53125 -27.421875 C 4.53125 -28.265625 4.378906 -29.046875 4.078125 -29.765625 C 3.785156 -30.492188 3.171875 -31.007812 2.234375 -31.3125 L 10.671875 -31.3125 C 9.773438 -31.007812 9.175781 -30.492188 8.875 -29.765625 C 8.582031 -29.046875 8.4375 -28.265625 8.4375 -27.421875 Z M 8.4375 -4.09375 "/></g></g></g><g fill="#FFFFFF" fill-opacity="1"><g transform="translate(130.142711, 176.1737)"><g><path d="M 6.203125 -4.671875 C 6.203125 -3.472656 6.539062 -2.476562 7.21875 -1.6875 C 7.90625 -0.90625 8.800781 -0.34375 9.90625 0 L 2.296875 0 C 4.597656 -0.726562 5.75 -2.285156 5.75 -4.671875 L 5.75 -26.453125 C 5.75 -27.609375 5.453125 -28.617188 4.859375 -29.484375 C 4.265625 -30.359375 3.410156 -30.96875 2.296875 -31.3125 L 8.75 -31.3125 L 26.328125 -7.28125 L 26.328125 -26.65625 C 26.328125 -27.84375 26.015625 -28.828125 25.390625 -29.609375 C 24.773438 -30.398438 23.914062 -30.96875 22.8125 -31.3125 L 30.15625 -31.3125 C 27.945312 -30.59375 26.84375 -29.039062 26.84375 -26.65625 L 26.84375 0 L 6.265625 -28.1875 Z M 6.203125 -4.671875 "/></g></g></g><g fill="#FFFFFF" fill-opacity="1"><g transform="translate(156.724977, 176.1737)"><g><path d="M 32.140625 -12.90625 C 31.421875 -12.65625 30.890625 -12.195312 30.546875 -11.53125 C 30.203125 -10.875 30.03125 -10.179688 30.03125 -9.453125 L 30.03125 0.25 C 29.738281 -0.300781 29.347656 -0.875 28.859375 -1.46875 C 28.367188 -2.0625 27.78125 -2.359375 27.09375 -2.359375 C 26.800781 -2.359375 26.363281 -2.226562 25.78125 -1.96875 C 25.207031 -1.71875 24.535156 -1.429688 23.765625 -1.109375 C 23.003906 -0.796875 22.164062 -0.507812 21.25 -0.25 C 20.332031 0 19.363281 0.125 18.34375 0.125 C 16.125 0.125 14.035156 -0.273438 12.078125 -1.078125 C 10.117188 -1.890625 8.414062 -3 6.96875 -4.40625 C 5.519531 -5.8125 4.378906 -7.472656 3.546875 -9.390625 C 2.710938 -11.304688 2.296875 -13.394531 2.296875 -15.65625 C 2.296875 -17.914062 2.710938 -20.003906 3.546875 -21.921875 C 4.378906 -23.835938 5.519531 -25.5 6.96875 -26.90625 C 8.414062 -28.3125 10.117188 -29.414062 12.078125 -30.21875 C 14.035156 -31.03125 16.125 -31.4375 18.34375 -31.4375 C 20.039062 -31.4375 21.828125 -31.210938 23.703125 -30.765625 C 25.578125 -30.316406 27.195312 -29.539062 28.5625 -28.4375 L 28.5625 -23.328125 C 27.925781 -24.222656 27.203125 -25.117188 26.390625 -26.015625 C 25.578125 -26.910156 24.679688 -27.71875 23.703125 -28.4375 C 22.722656 -29.164062 21.691406 -29.75 20.609375 -30.1875 C 19.523438 -30.632812 18.40625 -30.859375 17.25 -30.859375 C 15.46875 -30.859375 13.914062 -30.390625 12.59375 -29.453125 C 11.269531 -28.523438 10.160156 -27.359375 9.265625 -25.953125 C 8.367188 -24.546875 7.707031 -23 7.28125 -21.3125 C 6.851562 -19.625 6.640625 -18.015625 6.640625 -16.484375 C 6.640625 -14.742188 6.90625 -12.9375 7.4375 -11.0625 C 7.976562 -9.1875 8.757812 -7.457031 9.78125 -5.875 C 10.800781 -4.300781 12.078125 -3.015625 13.609375 -2.015625 C 15.140625 -1.015625 16.890625 -0.515625 18.859375 -0.515625 C 19.660156 -0.515625 20.519531 -0.648438 21.4375 -0.921875 C 22.351562 -1.203125 23.191406 -1.597656 23.953125 -2.109375 C 24.722656 -2.617188 25.351562 -3.234375 25.84375 -3.953125 C 26.332031 -4.679688 26.578125 -5.492188 26.578125 -6.390625 L 26.578125 -6.96875 L 26.65625 -7.984375 C 26.65625 -8.453125 26.640625 -8.929688 26.609375 -9.421875 C 26.585938 -9.910156 26.515625 -10.390625 26.390625 -10.859375 C 26.265625 -11.328125 26.050781 -11.742188 25.75 -12.109375 C 25.457031 -12.472656 25.03125 -12.738281 24.46875 -12.90625 Z M 32.140625 -12.90625 "/></g></g></g><g fill="#FFFFFF" fill-opacity="1"><g transform="translate(183.754558, 176.1737)"><g/></g></g><g fill="#FFFFFF" fill-opacity="1"><g transform="translate(193.530501, 176.1737)"><g><path d="M 8.4375 -4.09375 C 8.4375 -3.238281 8.582031 -2.414062 8.875 -1.625 C 9.175781 -0.84375 9.773438 -0.300781 10.671875 0 L 2.234375 0 C 3.171875 -0.300781 3.785156 -0.84375 4.078125 -1.625 C 4.378906 -2.414062 4.53125 -3.238281 4.53125 -4.09375 L 4.53125 -27.421875 C 4.53125 -28.265625 4.378906 -29.046875 4.078125 -29.765625 C 3.785156 -30.492188 3.171875 -31.007812 2.234375 -31.3125 L 22.8125 -31.3125 L 24.09375 -25.3125 C 23.113281 -27.1875 21.800781 -28.566406 20.15625 -29.453125 C 18.519531 -30.347656 16.660156 -30.796875 14.578125 -30.796875 L 8.4375 -30.796875 L 8.4375 -16.171875 L 12.390625 -16.171875 C 13.503906 -16.171875 14.5625 -16.445312 15.5625 -17 C 16.5625 -17.550781 17.234375 -18.378906 17.578125 -19.484375 L 17.578125 -12.46875 C 17.234375 -13.570312 16.5625 -14.378906 15.5625 -14.890625 C 14.5625 -15.398438 13.503906 -15.65625 12.390625 -15.65625 L 8.4375 -15.65625 Z M 8.4375 -4.09375 "/></g></g></g><g fill="#FFFFFF" fill-opacity="1"><g transform="translate(214.042043, 176.1737)"><g><path d="M 33.875 -15.65625 C 33.875 -13.476562 33.457031 -11.429688 32.625 -9.515625 C 31.789062 -7.597656 30.660156 -5.925781 29.234375 -4.5 C 27.804688 -3.070312 26.132812 -1.941406 24.21875 -1.109375 C 22.300781 -0.285156 20.253906 0.125 18.078125 0.125 C 15.910156 0.125 13.867188 -0.285156 11.953125 -1.109375 C 10.035156 -1.941406 8.363281 -3.070312 6.9375 -4.5 C 5.507812 -5.925781 4.378906 -7.597656 3.546875 -9.515625 C 2.710938 -11.429688 2.296875 -13.476562 2.296875 -15.65625 C 2.296875 -17.832031 2.710938 -19.878906 3.546875 -21.796875 C 4.378906 -23.710938 5.507812 -25.382812 6.9375 -26.8125 C 8.363281 -28.238281 10.035156 -29.363281 11.953125 -30.1875 C 13.867188 -31.019531 15.910156 -31.4375 18.078125 -31.4375 C 20.253906 -31.4375 22.300781 -31.019531 24.21875 -30.1875 C 26.132812 -29.363281 27.804688 -28.238281 29.234375 -26.8125 C 30.660156 -25.382812 31.789062 -23.710938 32.625 -21.796875 C 33.457031 -19.878906 33.875 -17.832031 33.875 -15.65625 Z M 6.703125 -16.421875 C 6.703125 -14.765625 6.976562 -12.988281 7.53125 -11.09375 C 8.09375 -9.195312 8.894531 -7.445312 9.9375 -5.84375 C 10.976562 -4.25 12.253906 -2.925781 13.765625 -1.875 C 15.285156 -0.832031 17.003906 -0.3125 18.921875 -0.3125 C 20.703125 -0.3125 22.273438 -0.78125 23.640625 -1.71875 C 25.003906 -2.65625 26.132812 -3.847656 27.03125 -5.296875 C 27.925781 -6.753906 28.597656 -8.332031 29.046875 -10.03125 C 29.492188 -11.738281 29.71875 -13.359375 29.71875 -14.890625 C 29.71875 -16.640625 29.453125 -18.453125 28.921875 -20.328125 C 28.390625 -22.203125 27.585938 -23.925781 26.515625 -25.5 C 25.453125 -27.070312 24.164062 -28.367188 22.65625 -29.390625 C 21.144531 -30.421875 19.382812 -30.9375 17.375 -30.9375 C 15.59375 -30.9375 14.039062 -30.46875 12.71875 -29.53125 C 11.394531 -28.59375 10.285156 -27.394531 9.390625 -25.9375 C 8.492188 -24.488281 7.820312 -22.921875 7.375 -21.234375 C 6.925781 -19.554688 6.703125 -17.953125 6.703125 -16.421875 Z M 6.703125 -16.421875 "/></g></g></g><g fill="#FFFFFF" fill-opacity="1"><g transform="translate(244.330638, 176.1737)"><g><path d="M 8.4375 -3.96875 C 8.4375 -3.113281 8.601562 -2.3125 8.9375 -1.5625 C 9.28125 -0.820312 9.878906 -0.300781 10.734375 0 L 2.296875 0 C 3.191406 -0.300781 3.785156 -0.84375 4.078125 -1.625 C 4.378906 -2.414062 4.53125 -3.238281 4.53125 -4.09375 L 4.53125 -27.421875 C 4.53125 -28.265625 4.378906 -29.0625 4.078125 -29.8125 C 3.785156 -30.5625 3.191406 -31.0625 2.296875 -31.3125 L 13.171875 -31.3125 C 14.703125 -31.3125 16.203125 -31.140625 17.671875 -30.796875 C 19.140625 -30.460938 20.445312 -29.921875 21.59375 -29.171875 C 22.75 -28.429688 23.675781 -27.453125 24.375 -26.234375 C 25.082031 -25.015625 25.4375 -23.535156 25.4375 -21.796875 C 25.4375 -19.273438 24.675781 -17.226562 23.15625 -15.65625 C 21.644531 -14.082031 19.71875 -13.019531 17.375 -12.46875 L 23.203125 -3.0625 C 23.671875 -2.382812 24.222656 -1.769531 24.859375 -1.21875 C 25.492188 -0.664062 26.175781 -0.257812 26.90625 0 L 20.96875 0 L 13.359375 -12.328125 L 8.4375 -12.328125 Z M 8.4375 -12.78125 L 12.78125 -12.78125 C 15.46875 -12.78125 17.585938 -13.609375 19.140625 -15.265625 C 20.691406 -16.929688 21.46875 -19.109375 21.46875 -21.796875 C 21.46875 -24.609375 20.722656 -26.8125 19.234375 -28.40625 C 17.742188 -30 15.59375 -30.796875 12.78125 -30.796875 L 8.4375 -30.796875 Z M 8.4375 -12.78125 "/></g></g></g><g transform="matrix(1, 0, 0, 1, 213, 228)"><g clip-path="url(#008f10ebea)"><g fill="#FFFFFF" fill-opacity="1"><g transform="translate(1.320526, 7.228821)"><g><path d="M 4.125 -1.21875 L 1.484375 -1.21875 L 0.96875 0 L -0.03125 0 L 2.328125 -5.265625 L 3.296875 -5.265625 L 5.671875 0 L 4.65625 0 Z M 3.796875 -1.984375 L 2.8125 -4.296875 L 1.828125 -1.984375 Z M 3.796875 -1.984375 "/></g></g></g><g fill="#FFFFFF" fill-opacity="1"><g transform="translate(6.398537, 7.228821)"><g><path d="M 2.96875 0.078125 C 2.238281 0.078125 1.671875 -0.125 1.265625 -0.53125 C 0.859375 -0.945312 0.65625 -1.535156 0.65625 -2.296875 L 0.65625 -5.265625 L 1.640625 -5.265625 L 1.640625 -2.328125 C 1.640625 -1.296875 2.085938 -0.78125 2.984375 -0.78125 C 3.867188 -0.78125 4.3125 -1.296875 4.3125 -2.328125 L 4.3125 -5.265625 L 5.28125 -5.265625 L 5.28125 -2.296875 C 5.28125 -1.535156 5.078125 -0.945312 4.671875 -0.53125 C 4.265625 -0.125 3.695312 0.078125 2.96875 0.078125 Z M 2.96875 0.078125 "/></g></g></g><g fill="#FFFFFF" fill-opacity="1"><g transform="translate(11.777909, 7.228821)"><g><path d="M 0.703125 -5.265625 L 3.015625 -5.265625 C 3.578125 -5.265625 4.078125 -5.15625 4.515625 -4.9375 C 4.953125 -4.71875 5.289062 -4.410156 5.53125 -4.015625 C 5.769531 -3.617188 5.890625 -3.160156 5.890625 -2.640625 C 5.890625 -2.117188 5.769531 -1.65625 5.53125 -1.25 C 5.289062 -0.851562 4.953125 -0.546875 4.515625 -0.328125 C 4.078125 -0.109375 3.578125 0 3.015625 0 L 0.703125 0 Z M 2.96875 -0.828125 C 3.351562 -0.828125 3.691406 -0.898438 3.984375 -1.046875 C 4.273438 -1.191406 4.5 -1.398438 4.65625 -1.671875 C 4.820312 -1.953125 4.90625 -2.273438 4.90625 -2.640625 C 4.90625 -2.992188 4.820312 -3.304688 4.65625 -3.578125 C 4.5 -3.859375 4.273438 -4.070312 3.984375 -4.21875 C 3.691406 -4.363281 3.351562 -4.4375 2.96875 -4.4375 L 1.6875 -4.4375 L 1.6875 -0.828125 Z M 2.96875 -0.828125 "/></g></g></g><g fill="#FFFFFF" fill-opacity="1"><g transform="translate(17.436041, 7.228821)"><g><path d="M 0.703125 -5.265625 L 1.6875 -5.265625 L 1.6875 0 L 0.703125 0 Z M 0.703125 -5.265625 "/></g></g></g><g fill="#FFFFFF" fill-opacity="1"><g transform="translate(19.27438, 7.228821)"><g><path d="M 3.171875 0.078125 C 2.628906 0.078125 2.140625 -0.0351562 1.703125 -0.265625 C 1.273438 -0.503906 0.9375 -0.832031 0.6875 -1.25 C 0.445312 -1.664062 0.328125 -2.128906 0.328125 -2.640625 C 0.328125 -3.148438 0.445312 -3.609375 0.6875 -4.015625 C 0.9375 -4.429688 1.273438 -4.753906 1.703125 -4.984375 C 2.140625 -5.222656 2.628906 -5.34375 3.171875 -5.34375 C 3.703125 -5.34375 4.179688 -5.222656 4.609375 -4.984375 C 5.046875 -4.753906 5.390625 -4.429688 5.640625 -4.015625 C 5.890625 -3.609375 6.015625 -3.148438 6.015625 -2.640625 C 6.015625 -2.117188 5.890625 -1.648438 5.640625 -1.234375 C 5.390625 -0.828125 5.046875 -0.503906 4.609375 -0.265625 C 4.179688 -0.0351562 3.703125 0.078125 3.171875 0.078125 Z M 3.171875 -0.78125 C 3.523438 -0.78125 3.84375 -0.859375 4.125 -1.015625 C 4.40625 -1.171875 4.625 -1.390625 4.78125 -1.671875 C 4.9375 -1.960938 5.015625 -2.285156 5.015625 -2.640625 C 5.015625 -2.984375 4.9375 -3.296875 4.78125 -3.578125 C 4.625 -3.867188 4.40625 -4.09375 4.125 -4.25 C 3.84375 -4.40625 3.523438 -4.484375 3.171875 -4.484375 C 2.816406 -4.484375 2.5 -4.40625 2.21875 -4.25 C 1.9375 -4.09375 1.710938 -3.867188 1.546875 -3.578125 C 1.390625 -3.296875 1.3125 -2.984375 1.3125 -2.640625 C 1.3125 -2.285156 1.390625 -1.960938 1.546875 -1.671875 C 1.710938 -1.390625 1.9375 -1.171875 2.21875 -1.015625 C 2.5 -0.859375 2.816406 -0.78125 3.171875 -0.78125 Z M 3.171875 -0.78125 "/></g></g></g><g fill="#FFFFFF" fill-opacity="1"><g transform="translate(25.053058, 7.228821)"><g/></g></g><g fill="#FFFFFF" fill-opacity="1"><g transform="translate(26.567427, 7.228821)"><g><path d="M 4.3125 -2.703125 L 5.234375 -2.703125 L 5.234375 -0.59375 C 4.960938 -0.375 4.644531 -0.207031 4.28125 -0.09375 C 3.925781 0.0195312 3.554688 0.078125 3.171875 0.078125 C 2.628906 0.078125 2.140625 -0.0351562 1.703125 -0.265625 C 1.273438 -0.503906 0.9375 -0.828125 0.6875 -1.234375 C 0.445312 -1.648438 0.328125 -2.117188 0.328125 -2.640625 C 0.328125 -3.148438 0.445312 -3.609375 0.6875 -4.015625 C 0.9375 -4.429688 1.28125 -4.753906 1.71875 -4.984375 C 2.15625 -5.222656 2.644531 -5.34375 3.1875 -5.34375 C 3.625 -5.34375 4.023438 -5.269531 4.390625 -5.125 C 4.753906 -4.976562 5.054688 -4.765625 5.296875 -4.484375 L 4.6875 -3.890625 C 4.28125 -4.285156 3.796875 -4.484375 3.234375 -4.484375 C 2.859375 -4.484375 2.523438 -4.40625 2.234375 -4.25 C 1.953125 -4.09375 1.726562 -3.875 1.5625 -3.59375 C 1.394531 -3.3125 1.3125 -2.992188 1.3125 -2.640625 C 1.3125 -2.285156 1.394531 -1.96875 1.5625 -1.6875 C 1.726562 -1.40625 1.953125 -1.179688 2.234375 -1.015625 C 2.523438 -0.859375 2.851562 -0.78125 3.21875 -0.78125 C 3.632812 -0.78125 4 -0.867188 4.3125 -1.046875 Z M 4.3125 -2.703125 "/></g></g></g><g fill="#FFFFFF" fill-opacity="1"><g transform="translate(31.818723, 7.228821)"><g><path d="M 2.96875 0.078125 C 2.238281 0.078125 1.671875 -0.125 1.265625 -0.53125 C 0.859375 -0.945312 0.65625 -1.535156 0.65625 -2.296875 L 0.65625 -5.265625 L 1.640625 -5.265625 L 1.640625 -2.328125 C 1.640625 -1.296875 2.085938 -0.78125 2.984375 -0.78125 C 3.867188 -0.78125 4.3125 -1.296875 4.3125 -2.328125 L 4.3125 -5.265625 L 5.28125 -5.265625 L 5.28125 -2.296875 C 5.28125 -1.535156 5.078125 -0.945312 4.671875 -0.53125 C 4.265625 -0.125 3.695312 0.078125 2.96875 0.078125 Z M 2.96875 0.078125 "/></g></g></g><g fill="#FFFFFF" fill-opacity="1"><g transform="translate(37.198094, 7.228821)"><g><path d="M 4.65625 -0.828125 L 4.65625 0 L 0.703125 0 L 0.703125 -5.265625 L 4.5625 -5.265625 L 4.5625 -4.453125 L 1.6875 -4.453125 L 1.6875 -3.078125 L 4.234375 -3.078125 L 4.234375 -2.28125 L 1.6875 -2.28125 L 1.6875 -0.828125 Z M 4.65625 -0.828125 "/></g></g></g><g fill="#FFFFFF" fill-opacity="1"><g transform="translate(41.680905, 7.228821)"><g><path d="M 2.34375 0.078125 C 1.9375 0.078125 1.539062 0.0195312 1.15625 -0.09375 C 0.78125 -0.207031 0.484375 -0.363281 0.265625 -0.5625 L 0.609375 -1.3125 C 0.816406 -1.144531 1.078125 -1.003906 1.390625 -0.890625 C 1.710938 -0.785156 2.03125 -0.734375 2.34375 -0.734375 C 2.726562 -0.734375 3.019531 -0.796875 3.21875 -0.921875 C 3.414062 -1.046875 3.515625 -1.210938 3.515625 -1.421875 C 3.515625 -1.578125 3.457031 -1.703125 3.34375 -1.796875 C 3.238281 -1.890625 3.101562 -1.960938 2.9375 -2.015625 C 2.769531 -2.078125 2.546875 -2.144531 2.265625 -2.21875 C 1.859375 -2.3125 1.53125 -2.40625 1.28125 -2.5 C 1.03125 -2.59375 0.816406 -2.738281 0.640625 -2.9375 C 0.460938 -3.144531 0.375 -3.421875 0.375 -3.765625 C 0.375 -4.054688 0.453125 -4.320312 0.609375 -4.5625 C 0.765625 -4.800781 1.003906 -4.988281 1.328125 -5.125 C 1.648438 -5.269531 2.039062 -5.34375 2.5 -5.34375 C 2.820312 -5.34375 3.140625 -5.300781 3.453125 -5.21875 C 3.765625 -5.144531 4.03125 -5.03125 4.25 -4.875 L 3.953125 -4.125 C 3.710938 -4.257812 3.46875 -4.359375 3.21875 -4.421875 C 2.96875 -4.492188 2.726562 -4.53125 2.5 -4.53125 C 2.101562 -4.53125 1.8125 -4.460938 1.625 -4.328125 C 1.4375 -4.203125 1.34375 -4.03125 1.34375 -3.8125 C 1.34375 -3.664062 1.394531 -3.546875 1.5 -3.453125 C 1.613281 -3.359375 1.753906 -3.28125 1.921875 -3.21875 C 2.085938 -3.164062 2.3125 -3.101562 2.59375 -3.03125 C 2.988281 -2.945312 3.3125 -2.851562 3.5625 -2.75 C 3.8125 -2.65625 4.023438 -2.503906 4.203125 -2.296875 C 4.378906 -2.097656 4.46875 -1.828125 4.46875 -1.484375 C 4.46875 -1.191406 4.390625 -0.925781 4.234375 -0.6875 C 4.078125 -0.457031 3.835938 -0.269531 3.515625 -0.125 C 3.191406 0.0078125 2.800781 0.078125 2.34375 0.078125 Z M 2.34375 0.078125 "/></g></g></g><g fill="#FFFFFF" fill-opacity="1"><g transform="translate(45.854817, 7.228821)"><g><path d="M 1.78125 -4.4375 L 0.03125 -4.4375 L 0.03125 -5.265625 L 4.5 -5.265625 L 4.5 -4.4375 L 2.75 -4.4375 L 2.75 0 L 1.78125 0 Z M 1.78125 -4.4375 "/></g></g></g><g fill="#FFFFFF" fill-opacity="1"><g transform="translate(49.825305, 7.228821)"><g><path d="M 4.4375 -2.734375 C 4.726562 -2.640625 4.957031 -2.476562 5.125 -2.25 C 5.300781 -2.03125 5.390625 -1.757812 5.390625 -1.4375 C 5.390625 -0.976562 5.210938 -0.625 4.859375 -0.375 C 4.515625 -0.125 4.003906 0 3.328125 0 L 0.703125 0 L 0.703125 -5.265625 L 3.171875 -5.265625 C 3.796875 -5.265625 4.273438 -5.144531 4.609375 -4.90625 C 4.953125 -4.664062 5.125 -4.332031 5.125 -3.90625 C 5.125 -3.644531 5.0625 -3.410156 4.9375 -3.203125 C 4.820312 -3.003906 4.65625 -2.847656 4.4375 -2.734375 Z M 1.6875 -4.5 L 1.6875 -3.046875 L 3.078125 -3.046875 C 3.410156 -3.046875 3.671875 -3.109375 3.859375 -3.234375 C 4.046875 -3.359375 4.140625 -3.535156 4.140625 -3.765625 C 4.140625 -4.015625 4.046875 -4.195312 3.859375 -4.3125 C 3.671875 -4.4375 3.410156 -4.5 3.078125 -4.5 Z M 3.265625 -0.765625 C 4.023438 -0.765625 4.40625 -1.019531 4.40625 -1.53125 C 4.40625 -2.039062 4.023438 -2.296875 3.265625 -2.296875 L 1.6875 -2.296875 L 1.6875 -0.765625 Z M 3.265625 -0.765625 "/></g></g></g><g fill="#FFFFFF" fill-opacity="1"><g transform="translate(54.993723, 7.228821)"><g><path d="M 3.171875 0.078125 C 2.628906 0.078125 2.140625 -0.0351562 1.703125 -0.265625 C 1.273438 -0.503906 0.9375 -0.832031 0.6875 -1.25 C 0.445312 -1.664062 0.328125 -2.128906 0.328125 -2.640625 C 0.328125 -3.148438 0.445312 -3.609375 0.6875 -4.015625 C 0.9375 -4.429688 1.273438 -4.753906 1.703125 -4.984375 C 2.140625 -5.222656 2.628906 -5.34375 3.171875 -5.34375 C 3.703125 -5.34375 4.179688 -5.222656 4.609375 -4.984375 C 5.046875 -4.753906 5.390625 -4.429688 5.640625 -4.015625 C 5.890625 -3.609375 6.015625 -3.148438 6.015625 -2.640625 C 6.015625 -2.117188 5.890625 -1.648438 5.640625 -1.234375 C 5.390625 -0.828125 5.046875 -0.503906 4.609375 -0.265625 C 4.179688 -0.0351562 3.703125 0.078125 3.171875 0.078125 Z M 3.171875 -0.78125 C 3.523438 -0.78125 3.84375 -0.859375 4.125 -1.015625 C 4.40625 -1.171875 4.625 -1.390625 4.78125 -1.671875 C 4.9375 -1.960938 5.015625 -2.285156 5.015625 -2.640625 C 5.015625 -2.984375 4.9375 -3.296875 4.78125 -3.578125 C 4.625 -3.867188 4.40625 -4.09375 4.125 -4.25 C 3.84375 -4.40625 3.523438 -4.484375 3.171875 -4.484375 C 2.816406 -4.484375 2.5 -4.40625 2.21875 -4.25 C 1.9375 -4.09375 1.710938 -3.867188 1.546875 -3.578125 C 1.390625 -3.296875 1.3125 -2.984375 1.3125 -2.640625 C 1.3125 -2.285156 1.390625 -1.960938 1.546875 -1.671875 C 1.710938 -1.390625 1.9375 -1.171875 2.21875 -1.015625 C 2.5 -0.859375 2.816406 -0.78125 3.171875 -0.78125 Z M 3.171875 -0.78125 "/></g></g></g><g fill="#FFFFFF" fill-opacity="1"><g transform="translate(60.772402, 7.228821)"><g><path d="M 3.171875 0.078125 C 2.628906 0.078125 2.140625 -0.0351562 1.703125 -0.265625 C 1.273438 -0.503906 0.9375 -0.832031 0.6875 -1.25 C 0.445312 -1.664062 0.328125 -2.128906 0.328125 -2.640625 C 0.328125 -3.148438 0.445312 -3.609375 0.6875 -4.015625 C 0.9375 -4.429688 1.273438 -4.753906 1.703125 -4.984375 C 2.140625 -5.222656 2.628906 -5.34375 3.171875 -5.34375 C 3.703125 -5.34375 4.179688 -5.222656 4.609375 -4.984375 C 5.046875 -4.753906 5.390625 -4.429688 5.640625 -4.015625 C 5.890625 -3.609375 6.015625 -3.148438 6.015625 -2.640625 C 6.015625 -2.117188 5.890625 -1.648438 5.640625 -1.234375 C 5.390625 -0.828125 5.046875 -0.503906 4.609375 -0.265625 C 4.179688 -0.0351562 3.703125 0.078125 3.171875 0.078125 Z M 3.171875 -0.78125 C 3.523438 -0.78125 3.84375 -0.859375 4.125 -1.015625 C 4.40625 -1.171875 4.625 -1.390625 4.78125 -1.671875 C 4.9375 -1.960938 5.015625 -2.285156 5.015625 -2.640625 C 5.015625 -2.984375 4.9375 -3.296875 4.78125 -3.578125 C 4.625 -3.867188 4.40625 -4.09375 4.125 -4.25 C 3.84375 -4.40625 3.523438 -4.484375 3.171875 -4.484375 C 2.816406 -4.484375 2.5 -4.40625 2.21875 -4.25 C 1.9375 -4.09375 1.710938 -3.867188 1.546875 -3.578125 C 1.390625 -3.296875 1.3125 -2.984375 1.3125 -2.640625 C 1.3125 -2.285156 1.390625 -1.960938 1.546875 -1.671875 C 1.710938 -1.390625 1.9375 -1.171875 2.21875 -1.015625 C 2.5 -0.859375 2.816406 -0.78125 3.171875 -0.78125 Z M 3.171875 -0.78125 "/></g></g></g><g clip-path="url(#778980f895)"><g fill="#FFFFFF" fill-opacity="1"><g transform="translate(66.55108, 7.228821)"><g><path d="M 2.515625 -2.203125 L 1.6875 -1.34375 L 1.6875 0 L 0.703125 0 L 0.703125 -5.265625 L 1.6875 -5.265625 L 1.6875 -2.5625 L 4.296875 -5.265625 L 5.390625 -5.265625 L 3.171875 -2.921875 L 5.53125 0 L 4.390625 0 Z M 2.515625 -2.203125 "/></g></g></g></g></g></g></svg>